<?xml version="1.0" encoding="utf-8"?>
<!-- Generator: Adobe Illustrator 22.0.0, SVG Export Plug-In . SVG Version: 6.00 Build 0)  -->
<svg version="1.1" id="Layer_1" xmlns="http://www.w3.org/2000/svg" xmlns:xlink="http://www.w3.org/1999/xlink" x="0px" y="0px"
	 viewBox="0 0 392 392" style="enable-background:new 0 0 392 392;" xml:space="preserve">
<style type="text/css">
	.st0{fill:#FFFFFF;}
</style>
<g>
	<path class="st0" d="M382.8,352.8c0.3,0,2.1-0.1,2.8-0.1h0c1.1,0,2.6,0.8,2.7,2.4v6.1c-0.1,0.4,0,1.9-2.6,2.1c-1.8,0-3.4,0-3.4,0
		c-25.4,0-24.5-24.6-24.5-24.6v-43.9c0-1.3,1.1-2.5,2.4-2.5h5.7c1.3,0,2.5,1.1,2.5,2.5v9.2H388c1.4,0,2.3,1.7,2.3,2.4v6.2
		c0,1.1-1.2,2.2-2.3,2.2c-0.6,0-16.1,0-19.5,0v23.5C368.5,338.4,367.7,352.8,382.8,352.8"/>
	<path class="st0" d="M325.1,360.9c0,1.3-1.2,2.5-2.5,2.5h-5.7c-1.3,0-2.4-1.1-2.4-2.5v-32.1c0,0-0.9-24.6,24.5-24.6
		c0,0,9.1,0,10.9,0c2.6,0.2,2.5,1.7,2.6,2.1v6.1c0,1.6-1.6,2.4-2.7,2.4h0c-0.7,0-10,0-10.3-0.1c-15.1,0-14.3,14.4-14.3,14.4
		L325.1,360.9L325.1,360.9z"/>
	<path class="st0" d="M190.9,353.6c0.3,0,2.1-0.1,2.8-0.1h0c1.1,0,2.6,0.8,2.7,2.4v6.1c-0.1,0.4,0,1.9-2.6,2.1c-1.8,0-3.4,0-3.4,0
		c-25.4,0-24.5-24.6-24.5-24.6v-43.9c0-1.3,1.1-2.5,2.4-2.5h5.7c1.3,0,2.5,1.1,2.5,2.5v9.2H196c1.4,0,2.3,1.7,2.3,2.4v6.2
		c0,1.1-1.2,2.2-2.3,2.2c-0.6,0-16.1,0-19.5,0v23.5C176.5,339.2,175.8,353.6,190.9,353.6"/>
	<path class="st0" d="M73.3,315l18.8,0c3.4,0.4,4.6,2.2,4.6,6.2v4.1c-0.2,3-0.5,6.2-6.2,6.2H67.9v-10.2C68,315.3,71,315.1,73.3,315
		 M100.9,352.6c-0.1,0-26.6,0-26.6,0c-6,0-6.5-2.5-6.5-10.2v-0.3c3.5,0,14.1,0,22.8,0c10.5,0,16.4-6.3,16.7-17.6l0-3.4
		c0-10.6-6.4-17-17.2-17H79.1l-4.8,0c-11,0.1-16.6,5.9-17,17.7l-0.1,20.6c0,10.4,2,21,17.2,21h26.6c1.9,0,2.9-1,2.9-2.7V355
		C103.8,354.2,103.5,352.7,100.9,352.6"/>
	<path class="st0" d="M292.5,352.6l-7.5,0.1h-9.4c-4.9,0-6.5-1.6-6.5-6.3v-25.2c0.1-5.9,3-6.1,5.4-6.3l17,0c6,0,6.5,2.5,6.5,10.2
		l0,21.2C297.8,352.3,294.9,352.4,292.5,352.6 M308.6,325.1c0-10.4-2-21-17.2-21h-16c-11,0.1-16.6,5.9-17,17.7v24.6
		c0,10.6,6.4,17,17.2,17h9.4v0h6.6c11-0.1,16.6-5.9,17-17.7V325.1z"/>
	<path class="st0" d="M36.2,352.5l-7.5,0v0H19c-4.9,0-6.5-1.6-6.5-6.4l0-31.8H35c6,0,6.5,2.5,6.5,10.3l0,21.5
		C41.5,352.1,38.6,352.3,36.2,352.5 M52.3,324.7c0-10.5-2-21.2-17.3-21.2H12.4v-9.3c0-1.4-1.2-2.5-2.5-2.5H4.1
		c-1.4,0-2.5,1.1-2.5,2.5v52c0,10.7,6.5,17.1,17.4,17.1h11.2h5.1c11-0.1,16.6-5.9,17-17.7v-7.7v0C52.3,337.8,52.3,324.7,52.3,324.7z
		"/>
	<path class="st0" d="M144,352.6l-18.5,0c-3.7-0.3-5-2-5-6.2v-4.1c0.2-3,0.5-6.2,6.2-6.2h22.7l0.1,10.2
		C149.4,352.3,146.4,352.5,144,352.6 M160.1,334.4v-9.3c0-10.4-2-21-17.2-21h-26.6c-1.9,0-2.9,1-2.9,2.7v5.6c0,0.9,0.4,2.4,2.9,2.4
		c0.1,0,26.6,0,26.6,0c6,0,6.5,2.5,6.5,10.2l0,0.3c-3.5,0-14.1,0-22.8,0c-10.5,0-16.4,6.3-16.7,17.6l0,3.4c0,10.6,6.4,17,17.2,17
		h9.5l0,0h6.6c11-0.1,16.6-5.9,17-17.7L160.1,334.4L160.1,334.4L160.1,334.4z"/>
	<path class="st0" d="M240.4,351.3c-1,1-2.6,1.4-5.1,1.4h-22.4l0-31.5c0-4.7,1.7-6.4,6.5-6.4h17.7c1.5,0.2,2.5,0.6,3.3,1.3
		c1.4,1.5,1.4,4.1,1.4,7.1c0,0.2,0,20.4,0,20.9C241.8,347.3,241.8,349.9,240.4,351.3 M252.5,324.9c0-10.8-2.1-20.8-17.2-20.8h-15.9
		c-10.7,0-17.2,6.4-17.2,17.1l0,51c0,1.5,0.8,2.5,2,2.5h6.2c1.3,0,2.5-1.2,2.5-2.5l0-9h22.4c15.1,0,17.2-10,17.2-20.8V338
		L252.5,324.9z"/>
	<path class="st0" d="M337.5,157.7c0-78-63.5-141.5-141.5-141.5c-78,0-141.5,63.5-141.5,141.5c0,36.1,13.6,70.5,38.4,96.8l0,0
		c3.3,3.5,8.9,3.7,12.4,0.4l15.3-14.4c3.5-3.3,3.7-8.8,0.4-12.4l0,0C102.9,209,93,184,93,157.7c0-56.8,46.2-103,103-103
		s103,46.2,103,103c0,26.3-9.9,51.3-27.9,70.5l0,0c-3.3,3.5-3.1,9,0.4,12.3l15.3,14.4c3.5,3.3,9.1,3.1,12.4-0.4l0,0
		C323.9,228.2,337.5,193.8,337.5,157.7"/>
	<path class="st0" d="M391,157c0-19.3-2.9-38.3-8.6-56.6l0,0c0,0,0,0,0,0c0,0,0,0,0-0.1l0,0c-1.5-4.6-6.3-7.1-10.9-5.7l-20,6.2
		c-4.6,1.4-7.2,6.3-5.8,11l0,0c4.6,14.6,6.9,29.7,6.9,45.1c0,27.2-7.4,53.9-21.3,77.2l0,0c-2.5,4.1-1.1,9.5,3,12l18,10.8
		c4.2,2.5,9.5,1.1,12-3h0C381.7,224.7,391,191.2,391,157"/>
	<path class="st0" d="M60.8,234.2c-13.9-23.3-21.3-50-21.3-77.2c0-15.4,2.3-30.6,6.9-45.1l0,0v0c0,0,0,0,0,0c1.4-4.6-1.2-9.5-5.8-11
		l-20-6.2c-4.6-1.4-9.5,1.1-10.9,5.7l0,0C3.9,118.6,1,137.7,1,157c0,34.2,9.3,67.7,26.8,97l0,0c2.5,4.1,7.9,5.4,12,3l18-10.8
		C61.9,243.7,63.2,238.3,60.8,234.2L60.8,234.2z"/>
</g>
</svg>
