<?xml version="1.0" encoding="utf-8"?>
<!-- Generator: Adobe Illustrator 22.0.0, SVG Export Plug-In . SVG Version: 6.00 Build 0)  -->
<svg version="1.1" id="Layer_1" xmlns="http://www.w3.org/2000/svg" xmlns:xlink="http://www.w3.org/1999/xlink" x="0px" y="0px"
	 viewBox="0 0 400 400" style="enable-background:new 0 0 400 400;" xml:space="preserve">
<style type="text/css">
	.st0{fill:#FFFFFF;}
</style>
<g>
	<g>
		<path class="st0" d="M364.5,317c-2.6,0-5.1-0.7-7.4-2.3c-6.1-4.1-7.7-12.3-3.7-18.3c12.2-18.2,18.6-39.4,18.6-61.5
			s-6.4-43.4-18.6-61.5c-4.1-6.1-2.4-14.3,3.5-18.3c6.1-4.1,14.2-2.4,18.3,3.5c15.2,22.5,23.1,48.9,23.1,76.3s-7.9,53.7-23.1,76.3
			C372.9,315,368.8,317,364.5,317L364.5,317z"/>
	</g>
	<g>
		<path class="st0" d="M326.7,295.6c-2.6,0-5.1-0.7-7.4-2.3c-6.1-4.1-7.7-12.3-3.5-18.3c8.1-11.9,12.3-25.7,12.3-40.1
			c0-14.3-4.3-28.2-12.3-40.1c-4.1-6.1-2.6-14.2,3.5-18.3c6.1-4.1,14.2-2.6,18.3,3.5c11.1,16.3,16.9,35.3,16.9,54.9
			c0,19.7-5.8,38.7-16.9,54.9C335.2,293.6,330.9,295.6,326.7,295.6L326.7,295.6z"/>
	</g>
	<path class="st0" d="M265,177.3C259.7,124.4,215.1,83,160.7,83c-45,0-84.8,28.9-99.1,70.9c-33.9,5-60.1,34.2-60.1,69.5
		c0,38.7,31.6,70.3,70.5,70.3h180.4c32.5,0,59-26.4,59-58.9C311.3,206.7,291.5,183.1,265,177.3z M252.4,267.4H72
		c-24.3,0-44.1-19.7-44.1-44s19.7-44,44.1-44c11.8,0,22.8,4.5,31.2,12.9c5.1,5.1,13.5,5.1,18.7,0c5.1-5.1,5.1-13.5,0-18.7
		c-9.1-9.1-20.3-15.3-32.5-18.4c12.5-27.5,40.3-45.9,71.3-45.9c43.3,0,78.4,35.2,78.4,78.3c0,8.4-1.3,16.6-4,24.5
		c-2.3,6.9,1.4,14.3,8.4,16.7c1.4,0.4,2.8,0.7,4.1,0.7c5.5,0,10.6-3.5,12.5-9.1c1.7-5.2,3-10.5,3.8-15.9
		c12.2,4.7,20.8,16.5,20.8,30.2C285,252.8,270.2,267.4,252.4,267.4z"/>
</g>
</svg>
