<?xml version="1.0" encoding="utf-8"?>
<!-- Generator: Adobe Illustrator 22.0.0, SVG Export Plug-In . SVG Version: 6.00 Build 0)  -->
<svg version="1.1" id="Capa_1" xmlns="http://www.w3.org/2000/svg" xmlns:xlink="http://www.w3.org/1999/xlink" x="0px" y="0px"
	 viewBox="0 0 792 792" style="enable-background:new 0 0 792 792;" xml:space="preserve">
<style type="text/css">
	.st0{fill:#FFFFFF;}
</style>
<path class="st0" d="M396.4,0.1c99.5,0,198.9,0,298.4,0c46.5,0,84.7,30.5,95,75.9c1.4,6.1,2.2,12.4,2.2,18.6
	c0,200.9,0.1,401.8,0,602.7c0,46.7-35.8,87.2-82,93.7c-5.1,0.7-10.2,1-15.4,1c-199.1,0-398.1,0-597.2,0c-48.7,0-87.9-33-96.2-81.1
	c-0.8-4.8-1.2-9.6-1.2-14.5C0,496.2,0,296,0.1,95.8C0.1,48.3,35,8.1,81.9,1c5.4-0.8,10.8-1,16.2-1C197.5,0.1,297,0.1,396.4,0.1z
	 M282.3,158.5L282.3,158.5c-35.5,0-71.1,0.1-106.6-0.2c-4.6,0-5.5,1.4-5.4,5.7c0.2,17.7,0.2,35.4,0,53.1c0,3.9,0.9,4.9,4.9,4.9
	c62.6-0.1,125.3-0.1,187.9-0.1c6.7,0,13.4,0.6,20,1.8c18.3,3.2,28.4,12.9,28.7,29.1c0.4,29.7,0.6,59.4-0.1,89
	c-0.3,15-8.1,25.8-22.7,31c-8.2,2.9-16.6,4.1-25.2,4.1c-37.5,0.1-75,0-112.6,0.2c-3.5,0-3.9-1.3-3.8-4.2c0.1-32.1,0-64.2,0.1-96.3
	c0-3.5-0.8-4.6-4.4-4.6c-22.8,0.2-45.7,0.2-68.5,0c-3.4,0-4.3,0.9-4.2,4.3c0.1,53.4,0.1,106.7,0,160.1c0,3.2,0.8,4,4,4
	c69.1-0.1,138.1,0,207.2-0.2c17.3,0,34.4-2.3,51-7.6c21.6-6.9,38.7-19.1,48-40.6c6.1-14.1,8.3-29,8.4-44.2
	c0.2-30.2,0.1-60.5,0.1-90.7c0-10.2-0.8-20.2-2.7-30.2c-5.4-28.3-20.8-48.5-48.1-59c-17.8-6.8-36.4-9.2-55.3-9.3
	C349.3,158.3,315.8,158.5,282.3,158.5z M579.7,534.6c0,1.7,0,3.2,0,4.7c0,29.8,0.1,59.6-0.1,89.4c0,3.2,0.9,4.1,4,4
	c11.3-0.2,22.5-0.2,33.8,0c2.7,0,3.3-0.9,3.3-3.4c-0.1-49.6-0.1-99.3,0-148.9c0-2.9-0.9-3.6-3.6-3.5c-11.8,0.1-23.7,0.2-35.5,0
	c-2.9,0-5,0.8-7.1,2.9c-25.6,26-51.3,52-76.9,78c-2.8,2.8-4.2,3.3-7.2,0.1c-25.2-26.2-50.6-52.2-76-78.4c-1.5-1.6-2.9-2.8-5.4-2.7
	c-12.3,0.1-24.5,0.2-36.8,0c-2.9,0-3.5,1-3.5,3.7c0.1,49.5,0.1,99,0,148.5c0,3.1,1.1,3.8,3.9,3.7c10.7-0.2,21.4-0.2,32.1,0
	c3.8,0.1,5.1-0.8,5-4.9c-0.2-29.5-0.1-59.1-0.1-88.6c0-1.5-0.5-3.1,0.9-5.2c1.1,1.4,2,2.6,3.1,3.7c25.6,26.2,51.3,52.4,76.9,78.7
	c2.5,2.6,3.8,2.9,6.6,0.1c26-26.4,52.3-52.7,78.4-78.9C576.8,536.6,577.6,535.2,579.7,534.6z M620.7,299.3c0-45.5,0-91,0.1-136.6
	c0-3.6-1-4.4-4.5-4.4c-24,0.2-47.9,0.1-71.9,0c-3.2,0-4,0.8-4,4c0.1,91.3,0.1,182.6,0,274c0,3.3,0.9,4,4.1,4c24-0.1,47.9-0.1,71.9,0
	c3.6,0,4.5-0.9,4.5-4.5C620.7,390.4,620.7,344.9,620.7,299.3z M254.5,477c-27.4,0-54.8,0-82.2,0c-2.7,0-4.1,0.2-4.1,3.6
	c0.1,49.5,0.1,99,0,148.5c0,3.1,1,3.8,3.9,3.8c11.6-0.1,23.1-0.2,34.7,0c3.2,0,4.2-0.8,4.1-4c-0.2-16.1,0.1-32.2-0.2-48.4
	c-0.1-4.2,1.2-5.1,5.2-5.1c32.2,0.2,64.5,0.1,96.7,0.2c3.2,0,4.5-0.7,4.4-4.2c-0.3-8.4-0.3-16.8,0-25.2c0.2-4.1-1.2-4.9-5-4.8
	c-32.2,0.1-64.5,0-96.7,0.2c-3.4,0-4.7-0.7-4.6-4.4c0.3-7,0.4-14,0-21c-0.2-4.3,1-5.5,5.4-5.5c39.9,0.2,79.9,0.1,119.8,0.2
	c3.4,0,4.7-0.7,4.6-4.4c-0.3-8.4-0.3-16.8,0-25.2c0.1-3.6-1.2-4.2-4.4-4.2C309,477,281.8,477,254.5,477z"/>
</svg>
