<svg id="Capa_1" data-name="Capa 1" xmlns="http://www.w3.org/2000/svg" viewBox="0 0 1180 178.06"><defs><style>.cls-1{fill:#fdfefe;}</style></defs><title>logo_mariomos</title><polygon class="cls-1" points="173.66 0 149.03 0 86.57 62.46 24.62 0 0 0 0 178.06 40.69 178.06 40.69 74.13 86.57 122.6 132.96 74.13 132.96 118.34 173.66 77.72 173.66 0"/><path class="cls-1" d="M433.8,427.11l-36.55,39.14H349.3V288.18H521.4V333l-57,61.43,66.83,71.62h-61ZM465.68,333H394.14v77Z" transform="translate(-29 -288.18)"/><path class="cls-1" d="M339.82,466.07H295.24V348.32l-73.61,73.35h53.13v44.58H161.5V421.67L295.24,288.18h44.58Z" transform="translate(-29 -288.18)"/><polygon class="cls-1" points="960.09 0 873.91 0 873.91 44.84 888.58 45.13 938.1 44.84 960.93 67.06 960.93 112.3 936.78 132.76 886.96 132.76 864.43 110.83 864.43 92.96 823.74 133.38 823.74 133.38 865.27 177.89 957.11 177.89 1001.63 136.36 1001.63 44.51 960.09 0"/><polygon class="cls-1" points="864.43 0 839.81 0 777.35 62.46 715.4 0 690.78 0 690.78 178.06 731.47 178.06 731.47 74.13 777.35 122.6 823.74 74.13 823.74 118.34 864.43 77.72 864.43 0"/><polygon class="cls-1" points="638.71 0.1 560.37 0.1 560.37 45.2 567.2 45.23 616.72 44.94 639.55 67.16 639.55 112.4 615.4 132.86 565.58 132.86 543.05 110.94 543.05 62.16 502.35 62.16 502.35 133.48 543.89 177.99 635.73 177.99 680.24 136.46 680.24 44.62 638.71 0.1"/><polygon class="cls-1" points="1010.66 28.63 1042.52 0 1180 0 1180 44.84 1059.83 44.84 1059.83 72.26 1146.58 72.26 1180 98.24 1180 145.34 1146.93 177.89 975.5 177.89 1023.1 133.48 1123.38 133.48 1123.55 110.01 1042.52 110.01 1010.66 77.46 1010.66 28.63"/><rect class="cls-1" x="502.35" width="40.7" height="44.84"/></svg>